<svg width="108" height="28" viewBox="0 0 108 28" fill="none" xmlns="http://www.w3.org/2000/svg">
<path d="M38.541 19H36.7637L35.0684 13.0391C34.9954 12.7793 34.9043 12.4056 34.7949 11.918C34.6855 11.4258 34.6195 11.084 34.5967 10.8926C34.5511 11.1842 34.4759 11.5625 34.3711 12.0273C34.2708 12.4922 34.1865 12.8385 34.1182 13.0664L32.4639 19H30.6865L29.3945 13.9961L28.082 9.00586H29.75L31.1787 14.8301C31.402 15.7643 31.5615 16.5892 31.6572 17.3047C31.7074 16.9173 31.7826 16.4844 31.8828 16.0059C31.9831 15.5273 32.0742 15.14 32.1562 14.8438L33.7832 9.00586H35.4033L37.0713 14.8711C37.2308 15.4134 37.3994 16.2246 37.5771 17.3047C37.6455 16.653 37.8096 15.8236 38.0693 14.8164L39.4912 9.00586H41.1455L38.541 19ZM49.0479 19H47.4346V14.3516C47.4346 13.7682 47.3161 13.333 47.0791 13.0459C46.8467 12.7588 46.4753 12.6152 45.9648 12.6152C45.2904 12.6152 44.7936 12.818 44.4746 13.2236C44.1602 13.6247 44.0029 14.2992 44.0029 15.2471V19H42.3965V8.36328H44.0029V11.0635C44.0029 11.4964 43.9756 11.959 43.9209 12.4512H44.0234C44.2422 12.0866 44.5452 11.804 44.9326 11.6035C45.3245 11.403 45.7803 11.3027 46.2998 11.3027C48.1318 11.3027 49.0479 12.2256 49.0479 14.0713V19ZM56.0137 19L55.6924 17.9473H55.6377C55.2731 18.4076 54.9062 18.722 54.5371 18.8906C54.168 19.0547 53.694 19.1367 53.1152 19.1367C52.3724 19.1367 51.7913 18.9362 51.3721 18.5352C50.9574 18.1341 50.75 17.5667 50.75 16.833C50.75 16.0537 51.0394 15.4658 51.6182 15.0693C52.1969 14.6729 53.0788 14.4564 54.2637 14.4199L55.5693 14.3789V13.9756C55.5693 13.4925 55.4554 13.1325 55.2275 12.8955C55.0042 12.654 54.6556 12.5332 54.1816 12.5332C53.7943 12.5332 53.4229 12.5902 53.0674 12.7041C52.7119 12.818 52.3701 12.9525 52.042 13.1074L51.5225 11.959C51.9326 11.7448 52.3815 11.583 52.8691 11.4736C53.3568 11.3597 53.8171 11.3027 54.25 11.3027C55.2116 11.3027 55.9362 11.5124 56.4238 11.9316C56.916 12.3509 57.1621 13.0094 57.1621 13.9072V19H56.0137ZM53.6211 17.9062C54.2044 17.9062 54.6715 17.7445 55.0225 17.4209C55.3779 17.0928 55.5557 16.6348 55.5557 16.0469V15.3906L54.585 15.4316C53.8285 15.459 53.277 15.5866 52.9307 15.8145C52.5889 16.0378 52.418 16.3818 52.418 16.8467C52.418 17.1839 52.5182 17.446 52.7188 17.6328C52.9193 17.8151 53.2201 17.9062 53.6211 17.9062ZM62.2207 17.8379C62.6126 17.8379 63.0046 17.7764 63.3965 17.6533V18.8633C63.2188 18.9408 62.9886 19.0046 62.7061 19.0547C62.4281 19.1094 62.1387 19.1367 61.8379 19.1367C60.3158 19.1367 59.5547 18.3346 59.5547 16.7305V12.6562H58.5225V11.9453L59.6299 11.3574L60.1768 9.75781H61.168V11.4395H63.3213V12.6562H61.168V16.7031C61.168 17.0905 61.2637 17.3776 61.4551 17.5645C61.651 17.7467 61.9062 17.8379 62.2207 17.8379ZM69.9932 16.8467C69.9932 17.585 69.7243 18.1523 69.1865 18.5488C68.6488 18.9408 67.8786 19.1367 66.876 19.1367C65.8688 19.1367 65.0599 18.984 64.4492 18.6787V17.291C65.3379 17.7012 66.165 17.9062 66.9307 17.9062C67.9196 17.9062 68.4141 17.6077 68.4141 17.0107C68.4141 16.8193 68.3594 16.6598 68.25 16.5322C68.1406 16.4046 67.9606 16.2725 67.71 16.1357C67.4593 15.999 67.1107 15.8441 66.6641 15.6709C65.7936 15.3337 65.2035 14.9964 64.8936 14.6592C64.5882 14.3219 64.4355 13.8844 64.4355 13.3467C64.4355 12.6995 64.6953 12.1982 65.2148 11.8428C65.7389 11.4827 66.4499 11.3027 67.3477 11.3027C68.2363 11.3027 69.0771 11.4827 69.8701 11.8428L69.3506 13.0527C68.5348 12.7155 67.849 12.5469 67.293 12.5469C66.4453 12.5469 66.0215 12.7884 66.0215 13.2715C66.0215 13.5085 66.1309 13.709 66.3496 13.873C66.5729 14.0371 67.056 14.2627 67.7988 14.5498C68.4232 14.7913 68.8766 15.0124 69.1592 15.2129C69.4417 15.4134 69.6514 15.6458 69.7881 15.9102C69.9248 16.1699 69.9932 16.4821 69.9932 16.8467ZM78.1074 19L77.1094 16.2246H73.2881L72.3105 19H70.5879L74.3271 8.96484H76.1045L79.8438 19H78.1074ZM76.6787 14.8164L75.7422 12.0957C75.6738 11.9134 75.5781 11.6263 75.4551 11.2344C75.3366 10.8424 75.2546 10.5553 75.209 10.373C75.0859 10.9336 74.9059 11.5465 74.6689 12.2119L73.7666 14.8164H76.6787ZM84.8271 19.1367C83.8701 19.1367 83.1273 18.7926 82.5986 18.1045H82.5029C82.5667 18.7425 82.5986 19.1299 82.5986 19.2666V22.3633H80.9922V11.4395H82.291C82.3275 11.5807 82.4027 11.918 82.5166 12.4512H82.5986C83.0999 11.6855 83.8519 11.3027 84.8545 11.3027C85.7979 11.3027 86.5316 11.6445 87.0557 12.3281C87.5843 13.0117 87.8486 13.971 87.8486 15.2061C87.8486 16.4411 87.5798 17.4049 87.042 18.0977C86.5088 18.7904 85.7705 19.1367 84.8271 19.1367ZM84.4375 12.6152C83.7995 12.6152 83.3324 12.8021 83.0361 13.1758C82.7445 13.5495 82.5986 14.1465 82.5986 14.9668V15.2061C82.5986 16.1266 82.7445 16.7943 83.0361 17.209C83.3278 17.6191 83.804 17.8242 84.4648 17.8242C85.0208 17.8242 85.4492 17.5964 85.75 17.1406C86.0508 16.6849 86.2012 16.0355 86.2012 15.1924C86.2012 14.3447 86.0508 13.7044 85.75 13.2715C85.4538 12.834 85.0163 12.6152 84.4375 12.6152ZM93.5498 19.1367C92.5928 19.1367 91.8499 18.7926 91.3213 18.1045H91.2256C91.2894 18.7425 91.3213 19.1299 91.3213 19.2666V22.3633H89.7148V11.4395H91.0137C91.0501 11.5807 91.1253 11.918 91.2393 12.4512H91.3213C91.8226 11.6855 92.5745 11.3027 93.5771 11.3027C94.5205 11.3027 95.2542 11.6445 95.7783 12.3281C96.307 13.0117 96.5713 13.971 96.5713 15.2061C96.5713 16.4411 96.3024 17.4049 95.7646 18.0977C95.2314 18.7904 94.4932 19.1367 93.5498 19.1367ZM93.1602 12.6152C92.5221 12.6152 92.055 12.8021 91.7588 13.1758C91.4671 13.5495 91.3213 14.1465 91.3213 14.9668V15.2061C91.3213 16.1266 91.4671 16.7943 91.7588 17.209C92.0505 17.6191 92.5267 17.8242 93.1875 17.8242C93.7435 17.8242 94.1719 17.5964 94.4727 17.1406C94.7734 16.6849 94.9238 16.0355 94.9238 15.1924C94.9238 14.3447 94.7734 13.7044 94.4727 13.2715C94.1764 12.834 93.7389 12.6152 93.1602 12.6152Z" fill="#707070"/>
<path d="M11.875 10.0625C10.5938 8.75 8.84375 8 6.96875 8C3.15625 8 0.03125 11.125 0.03125 14.9375C0.03125 16.1875 0.375 17.375 0.96875 18.4062L0 22L3.65625 21.0625C4.6875 21.5938 5.8125 21.9062 6.96875 21.9062C10.8125 21.9062 14 18.7812 14 14.9688C14 13.0938 13.1875 11.375 11.875 10.0625ZM6.96875 20.7188C5.9375 20.7188 4.9375 20.4375 4.03125 19.9062L3.84375 19.7812L1.65625 20.375L2.25 18.25L2.09375 18.0312C1.53125 17.0938 1.21875 16.0312 1.21875 14.9375C1.21875 11.7812 3.8125 9.1875 7 9.1875C8.53125 9.1875 9.96875 9.78125 11.0625 10.875C12.1562 11.9688 12.8125 13.4062 12.8125 14.9688C12.8125 18.125 10.1562 20.7188 6.96875 20.7188ZM10.1562 16.4062C9.96875 16.3125 9.125 15.9062 8.96875 15.8438C8.8125 15.7812 8.6875 15.75 8.5625 15.9375C8.46875 16.0938 8.125 16.5 8.03125 16.625C7.90625 16.7188 7.8125 16.75 7.65625 16.6562C6.625 16.1562 5.96875 15.75 5.28125 14.5938C5.09375 14.2812 5.46875 14.3125 5.78125 13.6562C5.84375 13.5312 5.8125 13.4375 5.78125 13.3438C5.75 13.25 5.375 12.4062 5.25 12.0625C5.09375 11.7188 4.96875 11.75 4.84375 11.75C4.75 11.75 4.625 11.75 4.53125 11.75C4.40625 11.75 4.21875 11.7812 4.0625 11.9688C3.90625 12.1562 3.46875 12.5625 3.46875 13.4062C3.46875 14.2812 4.0625 15.0938 4.15625 15.2188C4.25 15.3125 5.375 17.0625 7.125 17.8125C8.21875 18.3125 8.65625 18.3438 9.21875 18.25C9.53125 18.2188 10.2188 17.8438 10.375 17.4375C10.5312 17.0312 10.5312 16.6875 10.4688 16.625C10.4375 16.5312 10.3125 16.5 10.1562 16.4062Z" fill="#707070"/>
</svg>
